<svg version="1.1" id="Layer_1" xmlns="http://www.w3.org/2000/svg" xmlns:xlink="http://www.w3.org/1999/xlink" x="0px" y="0px"
	 width="100%" viewBox="0 0 963 145" enable-background="new 0 0 963 145" xml:space="preserve">
<path fill="#F5F1F0" opacity="1.000000" stroke="none" 
	d="
M1.000000,44.000000 
	C1.000000,29.672770 1.000000,15.345540 1.000000,1.035708 
	C322.000000,1.035708 643.000000,1.035708 964.000000,1.035708 
	C964.000000,8.068422 964.000000,15.065429 963.628174,22.433960 
	C941.854004,32.364311 920.465942,41.955490 899.027893,51.433487 
	C896.801331,52.417885 894.303772,53.134445 891.887695,53.290527 
	C871.284424,54.621510 850.673645,55.845585 830.057007,56.949303 
	C827.466064,57.088013 824.736145,56.666676 822.226013,55.955936 
	C801.911743,50.203945 781.660156,44.228527 761.314941,38.590137 
	C758.666748,37.856232 755.441223,38.090321 752.742981,38.827290 
	C730.083069,45.016445 708.904236,56.378723 684.780518,58.033089 
	C684.579956,57.893932 684.097290,57.816025 683.909180,57.538223 
	C682.740906,56.644165 681.765686,56.020027 680.779907,55.412827 
	C662.627991,44.231838 644.474792,33.052872 626.138794,21.599331 
	C624.990906,20.830067 624.026001,20.334940 622.950256,19.609709 
	C622.371704,19.202198 621.904114,19.024790 621.237122,18.565119 
	C617.336792,15.912969 615.466858,19.508682 612.593750,20.828720 
	C611.848511,21.208063 611.394409,21.543821 610.587769,21.938475 
	C599.779907,27.949945 589.324585,33.902519 578.878662,39.850109 
	C578.887939,39.845123 578.854309,39.835114 578.503052,39.886887 
	C572.402222,43.252544 566.652588,46.566433 560.889404,49.912209 
	C560.875793,49.944092 560.876526,49.872444 560.523010,49.918449 
	C547.357910,57.589527 533.454041,59.395725 518.780273,57.700264 
	C518.665466,57.687931 518.599609,57.909241 518.296204,57.612450 
	C510.313141,56.175755 502.633514,55.035854 494.738586,53.733604 
	C494.217438,53.679951 493.911560,53.788643 493.312531,53.590797 
	C486.952576,52.965904 480.841309,52.046341 474.830963,52.490826 
	C468.237762,52.978409 461.717499,54.624786 455.202576,55.948971 
	C448.744019,57.261688 442.516815,57.318825 436.037170,55.374233 
	C414.178192,48.814182 391.591400,46.267044 368.862549,43.872639 
	C368.744629,43.764362 368.449066,43.887367 368.179321,43.631035 
	C366.292755,42.830601 364.675873,42.286499 362.838409,41.483345 
	C357.643219,38.950665 352.786865,36.342102 347.649811,34.528782 
	C344.558533,33.437588 340.900146,32.792694 337.720795,33.314205 
	C324.638397,35.460117 311.686279,38.401535 298.602295,40.536041 
	C283.081299,43.068130 267.474030,45.071243 251.667450,47.058159 
	C236.710083,33.543720 222.043991,20.212868 207.184601,7.101081 
	C205.693298,5.785161 202.987198,5.154006 200.917618,5.292473 
	C180.319183,6.670635 159.730026,8.205173 139.156448,9.914674 
	C136.679871,10.120459 133.993698,11.168036 131.941544,12.596649 
	C111.449081,26.862509 91.102394,41.337822 70.600906,55.590542 
	C68.774033,56.860592 65.957352,57.909698 63.922405,57.492104 
	C42.910217,53.180172 21.964336,48.545116 1.000000,44.000000 
z"/>
<path fill="#19A7CD" opacity="1.000000" stroke="none" 
	d="
M964.000000,103.000000 
	C964.000000,117.327339 964.000000,131.654678 964.000000,145.960419 
	C643.000000,145.960419 322.000000,145.960419 1.000000,145.960419 
	C1.000000,135.258545 1.000000,124.596260 1.468657,113.466568 
	C28.893614,113.333321 55.854797,113.464905 82.803482,114.114769 
	C91.869370,114.333382 100.897743,115.930183 109.953804,116.785484 
	C118.359642,117.579384 126.856911,119.289764 135.175110,118.685562 
	C147.673233,117.777748 160.003174,114.747566 172.491135,113.456108 
	C186.730453,111.983521 200.682571,107.392609 215.337051,109.906525 
	C225.267807,111.610085 235.344147,112.492737 245.371078,113.600342 
	C256.390381,114.817566 267.407593,116.210197 278.464874,116.867386 
	C284.882202,117.248802 291.378601,116.014763 297.835876,116.056816 
	C330.626526,116.270370 363.415466,116.781136 396.206207,116.932037 
	C408.163483,116.987061 420.122406,116.251762 432.083374,116.024895 
	C453.206635,115.624237 474.333008,115.388245 495.456116,114.981155 
	C506.417480,114.769905 517.376282,114.384483 528.333374,113.998672 
	C546.252808,113.367722 564.171631,112.713264 582.087585,111.991180 
	C597.008789,111.389809 611.924500,110.653961 626.844421,110.018936 
	C650.887878,108.995598 674.930603,107.946426 698.978088,107.027130 
	C711.431580,106.551056 723.896301,106.380424 736.352905,105.976578 
	C744.314636,105.718468 752.278687,105.410751 760.227844,104.907524 
	C779.737915,103.672447 799.248352,101.201813 818.742554,101.349617 
	C834.524780,101.469276 850.268677,104.820793 866.057617,106.471283 
	C878.149963,107.735352 889.973267,111.667007 902.368774,110.021477 
	C912.368652,108.693970 922.389404,107.514709 932.413147,106.377968 
	C942.934448,105.184799 953.470459,104.120575 964.000000,103.000000 
z"/>
<path fill="#1797C0" opacity="1.000000" stroke="none" 
	d="
M964.000000,102.531464 
	C953.470459,104.120575 942.934448,105.184799 932.413147,106.377968 
	C922.389404,107.514709 912.368652,108.693970 902.368774,110.021477 
	C889.973267,111.667007 878.149963,107.735352 866.057617,106.471283 
	C850.268677,104.820793 834.524780,101.469276 818.742554,101.349617 
	C799.248352,101.201813 779.737915,103.672447 760.227844,104.907524 
	C752.278687,105.410751 744.314636,105.718468 736.352905,105.976578 
	C723.896301,106.380424 711.431580,106.551056 698.978088,107.027130 
	C674.930603,107.946426 650.887878,108.995598 626.844421,110.018936 
	C611.924500,110.653961 597.008789,111.389809 582.087585,111.991180 
	C564.171631,112.713264 546.252808,113.367722 528.333374,113.998672 
	C517.376282,114.384483 506.417480,114.769905 495.456116,114.981155 
	C474.333008,115.388245 453.206635,115.624237 432.083374,116.024895 
	C420.122406,116.251762 408.163483,116.987061 396.206207,116.932037 
	C363.415466,116.781136 330.626526,116.270370 297.835876,116.056816 
	C291.378601,116.014763 284.882202,117.248802 278.464874,116.867386 
	C267.407593,116.210197 256.390381,114.817566 245.371078,113.600342 
	C235.344147,112.492737 225.267807,111.610085 215.337051,109.906525 
	C200.682571,107.392609 186.730453,111.983521 172.491135,113.456108 
	C160.003174,114.747566 147.673233,117.777748 135.175110,118.685562 
	C126.856911,119.289764 118.359642,117.579384 109.953804,116.785484 
	C100.897743,115.930183 91.869370,114.333382 82.803482,114.114769 
	C55.854797,113.464905 28.893614,113.333321 1.468657,112.999588 
	C1.000000,108.310745 1.000000,103.621490 1.468657,98.465912 
	C18.044588,98.329414 34.150806,98.802673 50.259632,98.920944 
	C57.035461,98.970688 64.070648,99.302353 70.546120,97.709618 
	C87.281769,93.593239 103.821259,88.643028 120.339066,83.692101 
	C129.020264,81.090050 137.161407,79.226273 146.386261,82.756294 
	C163.882065,89.451332 181.847794,94.910789 199.547546,101.086349 
	C203.340591,102.409767 206.755264,102.450287 210.610489,101.369843 
	C219.858231,98.778107 229.268814,96.772484 238.541779,94.264519 
	C258.217102,88.943108 277.904846,83.954224 298.521545,83.964844 
	C310.133911,83.970825 321.744812,83.160744 333.359619,83.043060 
	C350.170715,82.872726 366.984894,83.025261 383.797394,82.952209 
	C385.534088,82.944664 387.268188,82.341248 389.417175,82.070999 
	C392.280670,82.412079 394.723541,82.807587 397.181549,82.962997 
	C414.323608,84.046814 431.477692,84.955032 448.610321,86.168228 
	C464.074005,87.263252 479.515259,88.674500 495.436920,89.961853 
	C497.573059,89.984741 499.242615,90.070747 500.903717,89.987778 
	C533.245728,88.372360 565.149292,91.886696 596.855652,97.981941 
	C604.466797,99.445122 612.312500,101.847595 619.827637,101.206703 
	C636.104492,99.818626 652.202942,96.464699 668.441345,94.455635 
	C678.771667,93.177528 689.250610,91.994888 699.612183,92.331528 
	C715.470154,92.846725 731.284485,94.706314 747.116760,96.003159 
	C750.574341,96.286369 754.110840,97.234428 757.471497,96.799179 
	C775.994385,94.400253 794.503540,91.858055 812.960815,88.999489 
	C835.017761,85.583420 857.076477,82.115715 879.019043,78.048141 
	C891.106201,75.807518 903.051697,75.999306 915.124207,77.204445 
	C931.413391,78.830521 947.707825,80.403969 964.000000,82.000000 
	C964.000000,88.687645 964.000000,95.375290 964.000000,102.531464 
z"/>
<path fill="#1689B0" opacity="1.000000" stroke="none" 
	d="
M964.000000,81.531342 
	C947.707825,80.403969 931.413391,78.830521 915.124207,77.204445 
	C903.051697,75.999306 891.106201,75.807518 879.019043,78.048141 
	C857.076477,82.115715 835.017761,85.583420 812.960815,88.999489 
	C794.503540,91.858055 775.994385,94.400253 757.471497,96.799179 
	C754.110840,97.234428 750.574341,96.286369 747.116760,96.003159 
	C731.284485,94.706314 715.470154,92.846725 699.612183,92.331528 
	C689.250610,91.994888 678.771667,93.177528 668.441345,94.455635 
	C652.202942,96.464699 636.104492,99.818626 619.827637,101.206703 
	C612.312500,101.847595 604.466797,99.445122 596.855652,97.981941 
	C565.149292,91.886696 533.245728,88.372360 500.903717,89.987778 
	C499.242615,90.070747 497.573059,89.984741 495.507690,89.623932 
	C496.568176,88.263054 497.915710,87.006264 499.506409,86.287674 
	C512.263367,80.524734 525.088379,74.912453 537.842285,69.142891 
	C541.974060,67.273781 545.956177,65.073952 550.406982,63.030003 
	C566.699646,66.022858 582.676147,68.630157 598.459473,72.113358 
	C612.452942,75.201576 626.194336,75.395882 640.109009,72.018661 
	C646.987366,70.349197 654.016418,69.300392 661.401611,67.980026 
	C665.566589,67.383720 669.291504,66.646103 673.051147,66.201294 
	C679.930176,65.387428 686.821594,64.307297 693.723389,64.179733 
	C698.779724,64.086281 703.853638,65.403175 708.932556,65.977692 
	C721.556519,67.405685 734.252625,68.347382 746.797607,70.278122 
	C758.933594,72.145927 770.437317,69.709816 782.460571,66.971893 
	C785.038696,66.778633 787.187256,66.663475 789.311646,66.372459 
	C806.764038,63.981709 823.931152,59.219700 841.859497,60.911442 
	C850.927917,61.767166 860.128174,61.257408 869.187866,62.168812 
	C886.339233,63.894234 903.270203,63.534645 920.422119,58.989082 
	C922.662109,58.800507 924.472290,58.655178 926.266846,58.400188 
	C938.846375,56.612804 951.422668,54.802773 964.000000,52.999996 
	C964.000000,62.354229 964.000000,71.708458 964.000000,81.531342 
z"/>
<path fill="#166C93" opacity="1.000000" stroke="none" 
	d="
M1.000000,44.468658 
	C21.964336,48.545116 42.910217,53.180172 63.922405,57.492104 
	C65.957352,57.909698 68.774033,56.860592 70.600906,55.590542 
	C91.102394,41.337822 111.449081,26.862509 131.941544,12.596649 
	C133.993698,11.168036 136.679871,10.120459 139.156448,9.914674 
	C159.730026,8.205173 180.319183,6.670635 200.917618,5.292473 
	C202.987198,5.154006 205.693298,5.785161 207.184601,7.101081 
	C222.043991,20.212868 236.710083,33.543720 251.355606,47.274395 
	C245.046890,48.491585 238.814346,49.255726 232.579498,50.000580 
	C223.223679,51.118294 213.671982,51.393166 204.555389,53.528458 
	C191.169037,56.663811 178.086807,61.103752 164.901367,65.075401 
	C164.143738,65.303619 163.623016,66.318329 162.610291,66.921593 
	C156.539673,65.104584 150.611374,63.863762 145.220245,61.432056 
	C137.864288,58.114094 131.314392,59.435684 124.196022,62.192169 
	C116.711731,65.090347 108.769958,66.807121 100.602989,69.023994 
	C93.302666,68.041359 86.449142,66.853371 79.545502,66.176964 
	C73.805908,65.614609 67.812592,64.603874 62.273094,65.631767 
	C48.117489,68.258453 34.128990,71.815910 20.129097,75.228508 
	C16.962290,76.000450 14.020905,77.697144 10.523186,78.971199 
	C7.047077,78.982826 4.023539,78.991409 1.000000,79.000000 
	C1.000000,67.645775 1.000000,56.291546 1.000000,44.468658 
z"/>
<path fill="#1689B0" opacity="1.000000" stroke="none" 
	d="
M101.028091,69.040131 
	C108.769958,66.807121 116.711731,65.090347 124.196022,62.192169 
	C131.314392,59.435684 137.864288,58.114094 145.220245,61.432056 
	C150.611374,63.863762 156.539673,65.104584 162.843430,67.197487 
	C176.055420,71.750092 188.623703,76.071114 201.274612,80.134903 
	C203.724854,80.921982 206.589737,81.268951 209.106796,80.858604 
	C224.932800,78.278610 240.752945,75.627968 256.501801,72.617569 
	C279.246307,68.269966 302.067780,64.182121 324.581970,58.829056 
	C336.903351,55.899467 347.438507,55.710304 358.225006,63.789368 
	C367.712311,70.895348 378.686157,76.016579 389.003510,82.014328 
	C387.268188,82.341248 385.534088,82.944664 383.797394,82.952209 
	C366.984894,83.025261 350.170715,82.872726 333.359619,83.043060 
	C321.744812,83.160744 310.133911,83.970825 298.521545,83.964844 
	C277.904846,83.954224 258.217102,88.943108 238.541779,94.264519 
	C229.268814,96.772484 219.858231,98.778107 210.610489,101.369843 
	C206.755264,102.450287 203.340591,102.409767 199.547546,101.086349 
	C181.847794,94.910789 163.882065,89.451332 146.386261,82.756294 
	C137.161407,79.226273 129.020264,81.090050 120.339066,83.692101 
	C103.821259,88.643028 87.281769,93.593239 70.546120,97.709618 
	C64.070648,99.302353 57.035461,98.970688 50.259632,98.920944 
	C34.150806,98.802673 18.044588,98.329414 1.468657,97.999794 
	C1.000000,91.978844 1.000000,85.957695 1.000000,79.468269 
	C4.023539,78.991409 7.047077,78.982826 10.954080,78.985718 
	C15.783588,79.331680 19.726585,79.708641 23.676287,79.992180 
	C33.066227,80.666275 42.452278,81.635704 51.853512,81.831093 
	C58.751759,81.974464 65.818268,81.804268 72.540581,80.443695 
	C79.275978,79.080482 85.736031,76.218208 92.199593,73.710899 
	C95.282478,72.514999 98.093773,70.619011 101.028091,69.040131 
z"/>
<path fill="#1A6D92" opacity="1.000000" stroke="none" 
	d="
M919.984985,58.981560 
	C903.270203,63.534645 886.339233,63.894234 869.187866,62.168812 
	C860.128174,61.257408 850.927917,61.767166 841.859497,60.911442 
	C823.931152,59.219700 806.764038,63.981709 789.311646,66.372459 
	C787.187256,66.663475 785.038696,66.778633 782.379761,66.619064 
	C775.419434,63.866898 769.107971,60.996338 762.501831,59.224525 
	C757.172913,57.795250 751.485962,57.089737 745.961670,57.109676 
	C726.612976,57.179512 707.169556,55.623997 687.983826,59.722580 
	C687.132141,59.904518 685.988647,58.720184 684.981079,58.172245 
	C708.904236,56.378723 730.083069,45.016445 752.742981,38.827290 
	C755.441223,38.090321 758.666748,37.856232 761.314941,38.590137 
	C781.660156,44.228527 801.911743,50.203945 822.226013,55.955936 
	C824.736145,56.666676 827.466064,57.088013 830.057007,56.949303 
	C850.673645,55.845585 871.284424,54.621510 891.887695,53.290527 
	C894.303772,53.134445 896.801331,52.417885 899.027893,51.433487 
	C920.465942,41.955490 941.854004,32.364311 963.628174,22.902740 
	C964.000000,26.030594 964.000000,29.061188 963.624084,32.549480 
	C961.564453,33.644295 959.744263,34.051510 958.219360,34.956318 
	C949.141602,40.342781 940.090454,45.777203 931.119141,51.338608 
	C927.297180,53.707893 923.689819,56.423393 919.984985,58.981560 
z"/>
<path fill="#167AA3" opacity="1.000000" stroke="none" 
	d="
M920.422119,58.989067 
	C923.689819,56.423393 927.297180,53.707893 931.119141,51.338608 
	C940.090454,45.777203 949.141602,40.342781 958.219360,34.956318 
	C959.744263,34.051510 961.564453,33.644295 963.624084,33.003590 
	C964.000000,39.354397 964.000000,45.708797 964.000000,52.531593 
	C951.422668,54.802773 938.846375,56.612804 926.266846,58.400188 
	C924.472290,58.655178 922.662109,58.800507 920.422119,58.989067 
z"/>
<path fill="#167AA3" opacity="1.000000" stroke="none" 
	d="
M389.417175,82.071014 
	C378.686157,76.016579 367.712311,70.895348 358.225006,63.789368 
	C347.438507,55.710304 336.903351,55.899467 324.581970,58.829056 
	C302.067780,64.182121 279.246307,68.269966 256.501801,72.617569 
	C240.752945,75.627968 224.932800,78.278610 209.106796,80.858604 
	C206.589737,81.268951 203.724854,80.921982 201.274612,80.134903 
	C188.623703,76.071114 176.055420,71.750092 163.225174,67.242905 
	C163.623016,66.318329 164.143738,65.303619 164.901367,65.075401 
	C178.086807,61.103752 191.169037,56.663811 204.555389,53.528458 
	C213.671982,51.393166 223.223679,51.118294 232.579498,50.000580 
	C238.814346,49.255726 245.046890,48.491585 251.592300,47.519836 
	C267.474030,45.071243 283.081299,43.068130 298.602295,40.536041 
	C311.686279,38.401535 324.638397,35.460117 337.720795,33.314205 
	C340.900146,32.792694 344.558533,33.437588 347.649811,34.528782 
	C352.786865,36.342102 357.643219,38.950665 362.976196,41.849930 
	C365.039429,42.946167 366.744232,43.416767 368.449066,43.887367 
	C368.449066,43.887367 368.744629,43.764362 368.947876,44.242332 
	C371.408020,45.469215 373.756439,46.017963 375.906158,47.001179 
	C386.006165,51.620529 395.929047,56.655640 406.183075,60.894192 
	C409.760101,62.372765 414.163940,62.662453 418.089386,62.324322 
	C427.368347,61.525055 436.587524,60.028816 445.829376,58.802849 
	C449.737366,58.284435 453.658173,57.835423 457.543549,57.179543 
	C463.346069,56.200039 469.083984,54.637215 474.920349,54.114044 
	C481.105591,53.559597 487.373749,53.930550 493.605713,53.897335 
	C493.911560,53.788643 494.217438,53.679951 494.932037,54.084282 
	C503.093719,55.701283 510.846680,56.805260 518.599609,57.909241 
	C518.599609,57.909241 518.665466,57.687931 518.971863,58.076576 
	C520.913208,58.975555 522.531738,59.851765 524.186340,59.926254 
	C528.780273,60.133076 533.389160,60.006378 538.270020,60.284603 
	C542.367554,61.380302 546.187134,62.202854 550.006775,63.025410 
	C545.956177,65.073952 541.974060,67.273781 537.842285,69.142891 
	C525.088379,74.912453 512.263367,80.524734 499.506409,86.287674 
	C497.915710,87.006264 496.568176,88.263054 495.037170,89.608376 
	C479.515259,88.674500 464.074005,87.263252 448.610321,86.168228 
	C431.477692,84.955032 414.323608,84.046814 397.181549,82.962997 
	C394.723541,82.807587 392.280670,82.412079 389.417175,82.071014 
z"/>
<path fill="#166C93" opacity="1.000000" stroke="none" 
	d="
M550.406982,63.030003 
	C546.187134,62.202854 542.367554,61.380302 538.469482,59.944679 
	C540.872375,58.887917 543.358398,58.469105 545.833923,57.995567 
	C551.700134,56.873440 557.530701,55.668629 560.876526,49.872444 
	C560.876526,49.872444 560.875793,49.944092 561.286255,49.950417 
	C565.728333,48.226406 569.890808,46.739006 573.737488,44.665653 
	C575.731628,43.590813 577.166687,41.478657 578.854309,39.835114 
	C578.854309,39.835114 578.887939,39.845123 579.277466,39.895866 
	C580.780396,39.743366 582.039917,39.808475 582.984436,39.294647 
	C590.894287,34.991753 598.795227,30.666746 606.577332,26.139374 
	C608.281067,25.148165 609.498779,23.321487 610.940369,21.879578 
	C611.394409,21.543821 611.848511,21.208063 612.791687,21.099051 
	C615.999390,20.499660 618.717896,19.673523 621.436462,18.847385 
	C621.904114,19.024790 622.371704,19.202198 622.996216,19.984964 
	C624.209351,21.018042 625.265625,21.445757 626.321899,21.873470 
	C644.474792,33.052872 662.627991,44.231838 680.779907,55.412827 
	C681.765686,56.020027 682.740906,56.644165 683.699646,57.840683 
	C677.494446,60.645542 671.280273,62.791451 665.148071,65.150230 
	C663.622009,65.737244 662.360413,67.012077 660.977295,67.970757 
	C654.016418,69.300392 646.987366,70.349197 640.109009,72.018661 
	C626.194336,75.395882 612.452942,75.201576 598.459473,72.113358 
	C582.676147,68.630157 566.699646,66.022858 550.406982,63.030003 
z"/>
<path fill="#167AA2" opacity="1.000000" stroke="none" 
	d="
M661.401611,67.980026 
	C662.360413,67.012077 663.622009,65.737244 665.148071,65.150230 
	C671.280273,62.791451 677.494446,60.645542 683.887817,58.118484 
	C684.097290,57.816025 684.579956,57.893932 684.780518,58.033089 
	C685.988647,58.720184 687.132141,59.904518 687.983826,59.722580 
	C707.169556,55.623997 726.612976,57.179512 745.961670,57.109676 
	C751.485962,57.089737 757.172913,57.795250 762.501831,59.224525 
	C769.107971,60.996338 775.419434,63.866898 781.938965,66.615662 
	C770.437317,69.709816 758.933594,72.145927 746.797607,70.278122 
	C734.252625,68.347382 721.556519,67.405685 708.932556,65.977692 
	C703.853638,65.403175 698.779724,64.086281 693.723389,64.179733 
	C686.821594,64.307297 679.930176,65.387428 673.051147,66.201294 
	C669.291504,66.646103 665.566589,67.383720 661.401611,67.980026 
z"/>
<path fill="#1B6D92" opacity="1.000000" stroke="none" 
	d="
M493.312531,53.590797 
	C487.373749,53.930550 481.105591,53.559597 474.920349,54.114044 
	C469.083984,54.637215 463.346069,56.200039 457.543549,57.179543 
	C453.658173,57.835423 449.737366,58.284435 445.829376,58.802849 
	C436.587524,60.028816 427.368347,61.525055 418.089386,62.324322 
	C414.163940,62.662453 409.760101,62.372765 406.183075,60.894192 
	C395.929047,56.655640 386.006165,51.620529 375.906158,47.001179 
	C373.756439,46.017963 371.408020,45.469215 369.065796,44.350609 
	C391.591400,46.267044 414.178192,48.814182 436.037170,55.374233 
	C442.516815,57.318825 448.744019,57.261688 455.202576,55.948971 
	C461.717499,54.624786 468.237762,52.978409 474.830963,52.490826 
	C480.841309,52.046341 486.952576,52.965904 493.312531,53.590797 
z"/>
<path fill="#1B6D92" opacity="1.000000" stroke="none" 
	d="
M560.523010,49.918449 
	C557.530701,55.668629 551.700134,56.873440 545.833923,57.995567 
	C543.358398,58.469105 540.872375,58.887917 538.191650,59.671532 
	C533.389160,60.006378 528.780273,60.133076 524.186340,59.926254 
	C522.531738,59.851765 520.913208,58.975555 519.086670,58.088905 
	C533.454041,59.395725 547.357910,57.589527 560.523010,49.918449 
z"/>
<path fill="#1B6D92" opacity="1.000000" stroke="none" 
	d="
M610.587769,21.938473 
	C609.498779,23.321487 608.281067,25.148165 606.577332,26.139374 
	C598.795227,30.666746 590.894287,34.991753 582.984436,39.294647 
	C582.039917,39.808475 580.780396,39.743366 579.268127,39.900856 
	C589.324585,33.902519 599.779907,27.949945 610.587769,21.938473 
z"/>
<path fill="#1B6D92" opacity="1.000000" stroke="none" 
	d="
M578.503052,39.886887 
	C577.166687,41.478657 575.731628,43.590813 573.737488,44.665653 
	C569.890808,46.739006 565.728333,48.226406 561.299927,49.918533 
	C566.652588,46.566433 572.402222,43.252544 578.503052,39.886887 
z"/>
<path fill="#1B6D92" opacity="1.000000" stroke="none" 
	d="
M518.296204,57.612450 
	C510.846680,56.805260 503.093719,55.701283 495.147339,54.246628 
	C502.633514,55.035854 510.313141,56.175755 518.296204,57.612450 
z"/>
<path fill="#1B6D92" opacity="1.000000" stroke="none" 
	d="
M621.237122,18.565121 
	C618.717896,19.673523 615.999390,20.499660 613.082886,21.055466 
	C615.466858,19.508682 617.336792,15.912969 621.237122,18.565121 
z"/>
<path fill="#1B6D92" opacity="1.000000" stroke="none" 
	d="
M368.179321,43.631035 
	C366.744232,43.416767 365.039429,42.946167 363.196808,42.108978 
	C364.675873,42.286499 366.292755,42.830601 368.179321,43.631035 
z"/>
<path fill="#1B6D92" opacity="1.000000" stroke="none" 
	d="
M626.138794,21.599335 
	C625.265625,21.445757 624.209351,21.018042 623.107117,20.215069 
	C624.026001,20.334940 624.990906,20.830067 626.138794,21.599335 
z"/>
<path fill="#157AA3" opacity="1.000000" stroke="none" 
	d="
M100.602989,69.023994 
	C98.093773,70.619011 95.282478,72.514999 92.199593,73.710899 
	C85.736031,76.218208 79.275978,79.080482 72.540581,80.443695 
	C65.818268,81.804268 58.751759,81.974464 51.853512,81.831093 
	C42.452278,81.635704 33.066227,80.666275 23.676287,79.992180 
	C19.726585,79.708641 15.783588,79.331680 11.406649,78.982681 
	C14.020905,77.697144 16.962290,76.000450 20.129097,75.228508 
	C34.128990,71.815910 48.117489,68.258453 62.273094,65.631767 
	C67.812592,64.603874 73.805908,65.614609 79.545502,66.176964 
	C86.449142,66.853371 93.302666,68.041359 100.602989,69.023994 
z"/>
</svg>