<svg id="visual" viewBox="0 0 5000 2500" width="5000" height="2500" xmlns="http://www.w3.org/2000/svg" xmlns:xlink="http://www.w3.org/1999/xlink" version="1.1"><rect x="0" y="0" width="5000" height="2500" fill="#F6F1F1"></rect><path d="M0 1778L714 1642L1429 1584L2143 1853L2857 1839L3571 1605L4286 1805L5000 1560L5000 2501L4286 2501L3571 2501L2857 2501L2143 2501L1429 2501L714 2501L0 2501Z" fill="#146c94"></path><path d="M0 1692L714 1740L1429 1882L2143 1723L2857 1836L3571 1878L4286 1851L5000 1687L5000 2501L4286 2501L3571 2501L2857 2501L2143 2501L1429 2501L714 2501L0 2501Z" fill="#157aa3"></path><path d="M0 1950L714 2112L1429 2101L2143 2089L2857 2056L3571 1843L4286 1843L5000 1975L5000 2501L4286 2501L3571 2501L2857 2501L2143 2501L1429 2501L714 2501L0 2501Z" fill="#1689b1"></path><path d="M0 2033L714 2246L1429 2064L2143 2106L2857 2141L3571 2183L4286 2264L5000 2133L5000 2501L4286 2501L3571 2501L2857 2501L2143 2501L1429 2501L714 2501L0 2501Z" fill="#1798c0"></path><path d="M0 2359L714 2255L1429 2242L2143 2294L2857 2268L3571 2329L4286 2298L5000 2352L5000 2501L4286 2501L3571 2501L2857 2501L2143 2501L1429 2501L714 2501L0 2501Z" fill="#19a7ce"></path></svg>