<svg version="1.1" id="Layer_1" xmlns="http://www.w3.org/2000/svg" xmlns:xlink="http://www.w3.org/1999/xlink" x="0px" y="0px"
	 width="100%" viewBox="0 0 967 145" enable-background="new 0 0 967 145" xml:space="preserve">
<path fill="#F5F1F1" opacity="1.000000" stroke="none" 
	d="
M1.309469,44.252911 
	C1.000000,30.505732 1.058463,17.010944 0.939090,3.517731 
	C0.920464,1.412290 1.301937,0.544829 3.484612,0.980319 
	C4.125483,1.108187 4.813452,1.000000 5.479836,1.000000 
	C324.844208,1.000000 644.208557,1.008936 963.572876,0.896101 
	C967.482788,0.894720 968.311340,1.929488 968.087524,5.574500 
	C967.751221,11.051621 968.000000,16.564667 968.000000,22.531218 
	C966.718506,24.364641 965.113770,25.223001 963.425171,25.967201 
	C943.317078,34.829472 923.286865,43.865547 903.299744,52.996735 
	C899.398743,54.778942 895.163940,55.047619 891.083923,55.214657 
	C877.291199,55.779327 863.540588,57.040844 849.746399,57.500061 
	C847.082153,57.588760 844.436646,57.702061 841.785278,58.056843 
	C835.796570,58.858200 829.912964,58.613186 824.000854,56.920586 
	C804.951782,51.466953 785.956360,45.828850 766.899963,40.401314 
	C763.994385,39.573772 761.102234,38.741795 758.086548,39.765987 
	C740.276184,45.814743 722.287964,51.334885 704.213318,57.903599 
	C699.149780,58.807648 694.403198,58.614544 689.318909,59.102715 
	C676.041687,52.392715 664.190002,44.033352 651.840698,36.495762 
	C643.743896,31.553713 635.586365,26.695679 627.676453,21.457323 
	C624.343140,19.249861 621.579285,19.387947 618.045959,21.342531 
	C598.967651,31.896332 579.920349,42.510937 560.973267,53.291916 
	C553.380798,57.612057 545.123901,57.925587 536.618164,59.523762 
	C533.266296,60.503880 530.308411,60.132576 527.320984,59.684532 
	C515.954102,57.979752 504.603455,56.166214 493.295166,54.119896 
	C488.132507,53.185661 483.109406,53.222813 477.930756,54.062653 
	C467.920380,55.686058 458.075317,58.488674 447.401001,58.476669 
	C424.355957,52.063248 401.195465,48.582363 377.957550,45.517838 
	C376.969055,45.387478 375.964630,45.435791 374.543884,45.414803 
	C366.984680,44.077049 360.783722,40.345448 354.422394,37.228737 
	C349.163513,34.652172 344.234680,34.190994 338.600006,35.286430 
	C317.582611,39.372448 296.595795,43.652664 275.434937,46.952076 
	C269.388550,47.894833 263.313629,49.072540 256.717773,48.270275 
	C251.892822,46.632133 249.102402,42.880035 245.780060,39.956551 
	C234.664261,30.175215 223.566483,20.362028 212.767517,10.230102 
	C209.695267,7.347649 206.635162,6.398524 202.431595,6.819594 
	C190.693375,7.995410 178.896866,8.558042 167.132477,9.479044 
	C159.511353,10.075684 151.868851,10.349567 144.262756,11.218904 
	C140.461929,11.653320 137.319824,13.157882 134.268707,15.335163 
	C115.431160,28.777712 96.390778,41.935131 77.599319,55.441025 
	C73.187637,58.611813 68.906441,59.387177 63.587181,58.222542 
	C43.421307,53.807270 23.282097,49.256294 2.656959,45.089966 
	C2.060444,44.804222 1.839691,44.655022 1.309469,44.252911 
z"/>
<path fill="#19A7CE" opacity="1.000000" stroke="none" 
	d="
M1.156043,145.177063 
	C1.000000,134.645767 1.000000,124.291542 1.000000,113.468658 
	C2.891244,111.240791 5.270522,111.301331 7.598646,111.298386 
	C29.593706,111.270615 51.602585,110.789200 73.579361,111.453972 
	C90.206413,111.956909 106.796806,113.878433 123.341522,115.678345 
	C134.234558,116.863396 144.898422,116.535683 155.634033,114.797852 
	C171.588852,112.215157 187.620117,110.145943 203.611038,107.804825 
	C207.434540,107.245064 211.229538,107.254967 215.062683,107.738388 
	C235.722092,110.343880 256.442627,112.430801 277.104462,115.021103 
	C281.079285,115.519409 285.103821,115.440643 289.089813,115.200539 
	C322.885742,113.164818 356.712463,114.431755 390.518860,114.508064 
	C401.305084,114.532417 412.174866,115.812294 422.954193,115.151886 
	C444.435455,113.835815 465.931091,114.933517 487.391663,114.142830 
	C510.018677,113.309181 532.675598,113.244400 555.272522,112.085838 
	C580.534668,110.790627 605.832703,110.258163 631.071960,108.461121 
	C639.699097,107.846863 648.378479,107.717651 657.013916,107.493134 
	C676.986755,106.973839 696.942444,105.969078 716.887573,105.067741 
	C745.640808,103.768349 774.466064,103.228012 803.112854,100.283783 
	C825.290466,98.004440 846.953674,101.161369 868.680298,104.545425 
	C877.569580,105.929970 886.485840,107.135422 895.381897,108.474403 
	C898.043030,108.874947 900.655334,108.896416 903.331116,108.564926 
	C922.507202,106.189323 941.731201,104.225113 960.916077,101.922691 
	C963.065857,101.664696 965.220154,101.211784 967.624878,102.710312 
	C968.000000,116.494148 967.941650,129.988815 968.060852,143.481903 
	C968.079407,145.586456 967.701660,146.439987 965.515015,146.024628 
	C964.711121,145.871918 963.853760,146.000000 963.020813,146.000000 
	C642.992981,146.000000 322.965149,146.000000 2.468657,146.000000 
	C1.757141,145.799149 1.527837,145.583862 1.156043,145.177063 
z"/>
<path fill="#1798C0" opacity="1.000000" stroke="none" 
	d="
M968.000000,102.531464 
	C957.470764,104.120522 946.935181,105.184647 936.414185,106.377808 
	C926.390686,107.514549 916.370239,108.694511 906.370544,110.021355 
	C893.975281,111.666039 882.160278,107.660088 870.056702,106.492073 
	C854.253357,104.967026 838.761841,100.285118 822.751343,101.081604 
	C803.229065,102.052795 783.738770,103.656761 764.230042,104.914787 
	C756.446777,105.416695 748.659729,105.100327 740.837524,105.792625 
	C728.611206,106.874695 716.254089,106.376236 703.982239,107.072105 
	C687.569763,108.002769 671.147583,108.498085 654.728638,109.165489 
	C639.976624,109.765137 625.225586,110.478127 610.470215,111.101013 
	C584.594788,112.193321 558.742615,113.647568 532.839539,114.282120 
	C523.561584,114.509407 514.236816,114.469704 504.956787,115.029770 
	C481.843567,116.424706 458.683746,115.296951 435.591919,116.262466 
	C423.783783,116.756180 411.949005,117.454575 400.212463,116.831032 
	C367.249573,115.079796 334.287231,116.593124 301.332977,115.999588 
	C295.014282,115.885788 288.801392,117.656723 282.453369,117.001465 
	C271.425415,115.863136 260.387360,114.817787 249.368240,113.600357 
	C239.341431,112.492554 229.265305,111.609581 219.334579,109.906357 
	C204.680389,107.393021 190.728333,111.982521 176.489349,113.456230 
	C164.001968,114.748650 151.672531,117.778442 139.174927,118.686279 
	C130.856735,119.290520 122.359428,117.580025 113.953583,116.785965 
	C104.897552,115.930496 95.870636,114.724327 86.803154,114.040611 
	C58.541485,111.909637 30.225746,113.436157 1.468653,113.002472 
	C1.000000,108.310745 1.000000,103.621490 1.000000,98.466118 
	C3.067512,96.115524 5.648096,96.356941 8.117185,96.409492 
	C23.921658,96.745888 39.761192,95.445343 55.531170,97.347092 
	C67.663658,98.810196 78.908005,94.924332 90.261955,91.682274 
	C104.033165,87.749969 117.864288,84.024345 131.589554,79.937653 
	C137.272034,78.245689 142.607590,78.470390 148.176605,80.519066 
	C166.622055,87.304550 185.390167,93.156631 203.993057,99.488686 
	C207.454086,100.666740 210.760696,100.664299 214.272858,99.783562 
	C233.335571,95.003235 252.414169,90.285149 271.398163,85.199059 
	C276.267731,83.894424 281.186798,83.548103 286.205353,83.321777 
	C320.964569,81.754234 355.731750,80.872902 390.527740,81.442902 
	C391.196106,81.453857 391.841614,81.247025 392.909332,80.915848 
	C414.160706,81.021194 434.875183,82.572716 455.575470,84.769371 
	C469.607574,86.258415 483.608215,88.705826 498.282043,87.835907 
	C500.353699,88.286064 501.968384,88.606842 503.665131,88.393326 
	C504.986145,88.227089 506.329010,88.408195 507.657501,88.334824 
	C539.476196,86.577621 570.841736,90.297554 601.899597,96.720367 
	C616.861572,99.814522 631.569092,99.688469 646.461792,96.765778 
	C658.060181,94.489609 669.870605,93.451553 681.509827,91.404343 
	C693.845764,89.234566 706.068115,91.039482 718.332458,91.859741 
	C732.107544,92.781036 745.846313,94.364166 759.631165,94.894257 
	C767.756348,95.206711 775.816467,93.075676 783.909058,92.076881 
	C816.467346,88.058548 848.949585,83.397972 881.072571,76.762375 
	C896.290161,73.618912 911.190430,74.918190 926.248291,76.484787 
	C938.827576,77.793533 951.396606,79.201492 963.984131,80.433304 
	C965.152893,80.547676 966.294189,80.753067 967.643677,81.721313 
	C968.000000,88.687645 968.000000,95.375290 968.000000,102.531464 
z"/>
<path fill="#1689B1" opacity="1.000000" stroke="none" 
	d="
M968.000000,81.531342 
	C954.407349,81.722908 940.966797,79.814575 927.520508,78.075058 
	C908.650879,75.633926 890.067383,76.169365 871.315918,80.156090 
	C853.559570,83.931244 835.623535,87.063286 817.519592,89.117561 
	C801.599426,90.924026 785.770264,93.539009 769.906921,95.838303 
	C760.993408,97.130257 752.132019,96.468277 743.285217,95.246864 
	C738.851379,94.634727 734.328247,94.477249 729.925537,94.279503 
	C718.825562,93.780968 707.811340,92.262459 696.705994,91.971260 
	C686.345093,91.699570 676.309509,94.046852 666.159485,95.462135 
	C651.919617,97.447693 637.751831,100.402779 623.449524,101.312973 
	C615.224426,101.836411 606.709229,99.549942 598.472168,97.824425 
	C567.962769,91.433273 537.187012,88.604965 506.031860,89.968681 
	C503.899445,90.062027 501.747986,89.720093 499.301514,89.295090 
	C499.009216,86.189430 501.454376,85.729523 503.262177,84.899879 
	C520.116455,77.164932 537.136719,69.798943 554.438477,62.081036 
	C564.763672,63.011303 574.435303,65.482094 584.245239,67.165588 
	C594.557800,68.935318 604.896179,70.570450 615.166443,72.579033 
	C620.462402,73.614784 625.682190,73.337845 631.007812,72.597839 
	C642.199219,71.042747 653.117615,68.061638 664.736816,66.512123 
	C669.302063,66.127174 673.399658,65.458351 677.393005,64.391205 
	C690.979858,60.760365 704.465576,63.271133 717.981262,64.821724 
	C730.194885,66.222923 742.380493,67.862862 754.605774,69.157372 
	C759.418152,69.666939 764.216553,69.289940 769.010010,68.556519 
	C774.421631,67.728485 779.815125,66.780121 785.672058,65.914780 
	C800.041992,63.432392 813.973450,60.921425 827.983337,59.159088 
	C837.332886,57.982983 846.861572,59.546577 856.311462,59.809128 
	C875.531433,60.343136 894.771606,63.410892 913.976929,59.495674 
	C916.586975,58.963573 919.161194,58.303852 922.203003,57.656693 
	C935.068298,56.595074 947.226501,53.844658 959.535095,52.106476 
	C962.140625,51.738529 964.772949,50.933701 967.648438,52.727371 
	C968.000000,62.354229 968.000000,71.708458 968.000000,81.531342 
z"/>
<path fill="#1689B1" opacity="1.000000" stroke="none" 
	d="
M393.062927,81.611649 
	C391.497559,83.575256 389.553009,82.962196 387.790497,82.968246 
	C373.958252,83.015732 360.119507,83.256248 346.295166,82.922592 
	C331.970367,82.576851 317.732178,84.451218 303.415558,84.052567 
	C278.116486,83.348099 254.235794,90.895828 230.361588,97.619255 
	C215.940170,101.680611 202.661346,102.400818 188.554138,96.269409 
	C175.340302,90.526283 161.096207,87.195000 147.683304,81.853615 
	C139.052460,78.416565 131.729538,81.764801 124.022491,83.898361 
	C107.543892,88.460144 91.115341,93.203201 74.675415,97.903915 
	C67.962212,99.823456 61.018963,99.509323 54.332092,98.820282 
	C39.522362,97.294258 24.726254,98.473953 9.936301,98.011513 
	C7.272502,97.928223 4.603765,98.002861 1.468654,98.002289 
	C1.000000,91.978844 1.000000,85.957695 1.000000,79.468269 
	C1.235644,78.814903 1.471287,78.629799 2.093314,78.213959 
	C6.281642,76.945602 10.154347,77.480354 14.438147,77.505157 
	C24.915150,78.688515 35.019665,78.886482 45.097858,79.314278 
	C52.377399,79.623260 59.603409,80.908356 66.926956,80.431862 
	C69.575989,80.259506 72.274467,80.407417 74.791092,79.473412 
	C84.419655,75.899925 94.311172,73.051369 104.098557,68.727127 
	C113.716545,65.970528 122.790665,62.848164 131.728104,59.341934 
	C136.741394,57.375175 141.627853,57.215992 146.727097,59.104694 
	C153.247543,61.519791 159.919968,63.509197 166.934113,65.744888 
	C179.564026,70.232544 191.954849,74.156006 204.260223,78.332977 
	C207.659500,79.486832 211.086548,79.639687 214.610413,79.025360 
	C248.255661,73.159889 281.938934,67.504044 315.305389,60.145046 
	C324.414917,58.135941 333.621918,56.589233 342.743164,54.626999 
	C345.613068,54.009598 348.286835,54.169422 350.926300,55.709137 
	C363.877838,63.264271 376.937927,70.632347 389.856354,78.245148 
	C391.144440,79.004204 392.492981,79.713676 393.062927,81.611649 
z"/>
<path fill="#166E95" opacity="1.000000" stroke="none" 
	d="
M923.289490,58.784599 
	C907.302246,63.626873 891.374695,63.421379 875.190918,62.304134 
	C864.958862,61.597755 854.573853,61.754276 844.365845,60.817127 
	C826.528809,59.179600 809.638367,64.532845 792.302979,66.478569 
	C790.494873,66.681511 788.701294,66.961060 786.441772,66.973793 
	C779.850403,66.094177 774.253357,63.434433 768.482727,61.367317 
	C763.086609,59.434296 757.633606,58.541241 751.890442,58.608730 
	C738.433228,58.766880 724.972717,58.678757 711.513733,58.643120 
	C709.043701,58.636578 706.501160,58.925385 703.931763,57.199921 
	C722.165649,50.530186 740.703918,44.241909 759.203918,37.842682 
	C761.343384,37.102623 763.137817,37.836353 764.998840,38.367680 
	C784.648132,43.977810 804.304443,49.566029 823.901978,55.352901 
	C828.122192,56.599060 832.261658,57.242699 836.645508,56.962864 
	C856.412170,55.701088 876.183533,54.509670 895.957581,53.369514 
	C898.519287,53.221809 900.798828,52.468773 903.100525,51.436832 
	C924.474182,41.854340 945.870911,32.323368 967.630493,22.888727 
	C968.000000,26.030594 968.000000,29.061188 968.000000,32.545891 
	C954.532715,41.232162 941.008728,49.369236 927.330688,57.247955 
	C926.160522,57.921970 924.770142,57.962143 923.289490,58.784599 
z"/>
<path fill="#157AA3" opacity="1.000000" stroke="none" 
	d="
M923.445190,59.005127 
	C927.867493,54.394474 934.161072,52.074562 939.732727,48.597481 
	C947.165894,43.958660 954.678772,39.446232 962.200317,34.951244 
	C963.743164,34.029198 965.320251,33.014324 967.623840,33.004395 
	C968.000000,39.354397 968.000000,45.708797 968.000000,52.531597 
	C955.274353,53.717026 942.871643,56.689003 930.300049,58.482327 
	C928.148132,58.789299 926.031250,58.913986 923.445190,59.005127 
z"/>
<path fill="#4A798F" opacity="1.000000" stroke="none" 
	d="
M2.302336,78.567917 
	C1.979082,78.955742 1.490124,78.990784 1.245062,78.995392 
	C1.000000,67.645775 1.000000,56.291546 1.000000,44.468658 
	C1.083844,43.808777 1.167687,43.617558 1.560580,43.477097 
	C2.924361,44.858356 3.635441,46.332527 3.672954,48.060570 
	C3.867126,57.005009 3.919111,65.949791 3.639876,74.893356 
	C3.603367,76.062698 3.279605,77.182045 2.302336,78.567917 
z"/>
<path fill="#189BC2" opacity="1.000000" stroke="none" 
	d="
M1.000000,145.500000 
	C1.320681,145.104263 1.579089,145.293533 1.887612,145.783905 
	C1.666667,146.000000 1.333333,146.000000 1.000000,145.500000 
z"/>
<path fill="#167AA3" opacity="1.000000" stroke="none" 
	d="
M393.431549,82.018616 
	C381.133667,75.072044 368.829437,68.757561 357.538239,60.973526 
	C349.338501,55.320705 341.714630,56.200985 332.886047,58.035355 
	C305.703766,63.683174 278.610168,69.818665 251.147888,74.081299 
	C239.068130,75.956291 227.059586,78.297371 215.034698,80.513626 
	C211.882812,81.094543 208.786270,81.394615 205.703491,80.362648 
	C192.951630,76.093895 180.208023,71.800491 167.230469,67.240921 
	C165.935196,63.930660 168.527161,63.640072 170.195190,63.141960 
	C188.829269,57.577362 207.192200,50.935959 226.840271,49.461098 
	C234.630661,48.876320 242.394577,47.828701 250.155304,46.862766 
	C251.843628,46.652626 253.468765,46.679890 255.499573,47.275181 
	C271.793304,46.897247 287.211273,43.361671 302.728058,40.526741 
	C316.456268,38.018578 330.180725,35.486664 343.881683,32.835316 
	C346.138123,32.398651 347.993103,32.704239 350.070404,33.618374 
	C357.815979,37.026863 365.260223,41.130486 373.674652,43.936005 
	C386.480804,47.774055 397.779907,54.206341 409.637268,59.320572 
	C413.960022,61.185040 418.083618,61.780827 422.672821,60.903683 
	C430.471191,59.413147 438.179443,57.197315 446.603271,57.330902 
	C455.980225,57.095390 464.780975,55.201027 473.412903,53.056683 
	C484.173767,50.383472 494.420837,52.806389 504.826660,54.448357 
	C513.332642,55.790531 521.832886,57.174236 530.315552,58.654793 
	C532.383362,59.015705 534.251038,58.344612 536.604858,58.172302 
	C540.937256,59.593441 545.193115,59.004627 549.169861,60.175278 
	C550.881775,60.679230 552.856140,60.514904 554.038391,62.613571 
	C545.457642,68.594620 535.678528,71.561310 526.566101,75.943817 
	C517.585815,80.262787 508.469269,84.298470 499.205078,88.734024 
	C487.707825,91.475723 476.652679,88.082687 465.486115,87.559868 
	C456.927368,87.159142 448.353790,86.242470 439.885620,84.921738 
	C424.612274,82.539619 409.144257,83.832741 393.431549,82.018616 
z"/>
<path fill="#156D94" opacity="1.000000" stroke="none" 
	d="
M255.682709,47.062500 
	C247.258316,49.627205 238.280609,50.063999 229.453766,50.788292 
	C213.946487,52.060741 199.085953,55.787392 184.383423,60.417427 
	C178.606033,62.236801 172.493698,63.135014 167.075653,66.610535 
	C160.655670,65.673187 154.474487,63.706039 148.556458,61.204288 
	C141.744110,58.324490 135.588303,59.227852 128.945862,61.869900 
	C121.479614,64.839622 114.039200,68.199890 105.450241,69.036758 
	C103.263718,70.385689 101.272125,70.014900 99.286224,69.833626 
	C92.835106,69.244743 86.413223,68.329544 80.035652,67.295280 
	C73.115875,66.173065 66.518967,67.034882 59.839603,68.638062 
	C45.168537,72.159416 30.501127,75.709694 15.318759,78.721069 
	C10.954544,78.970886 6.931943,78.973579 2.444212,78.966003 
	C1.967175,67.487518 1.955269,56.019287 1.906496,44.039455 
	C23.479546,48.106804 45.114449,52.573704 66.673401,57.381222 
	C70.045372,58.133152 72.316986,57.350330 74.876236,55.537064 
	C95.226921,41.118275 115.643898,26.793043 136.000244,12.382201 
	C138.238983,10.797338 140.507004,9.945876 143.297531,9.751825 
	C163.871262,8.321147 184.435135,6.747004 204.998352,5.168977 
	C207.403534,4.984401 209.385315,5.214614 211.360168,7.016069 
	C225.986328,20.357992 240.732712,33.568134 255.682709,47.062500 
z"/>
<path fill="#156D94" opacity="1.000000" stroke="none" 
	d="
M554.407043,63.026539 
	C549.291748,61.029274 544.133606,61.206913 539.253357,60.017151 
	C538.435181,59.817684 537.638672,59.755257 537.102600,58.561699 
	C549.779175,57.353119 560.901245,52.178024 571.781860,45.748878 
	C587.531555,36.442753 603.710022,27.864424 619.618347,18.822290 
	C622.108521,17.406921 623.879578,17.429474 626.305115,18.955870 
	C646.726990,31.807060 667.236328,44.519241 687.910400,57.549698 
	C688.205261,60.772018 685.680603,60.957394 683.855408,61.667980 
	C677.891602,63.989857 671.658569,65.495613 665.279541,67.727028 
	C656.226807,69.633469 647.387146,70.930740 638.750977,73.055435 
	C626.315186,76.114922 614.193970,74.371147 601.981689,71.977570 
	C586.276245,68.899345 570.534607,66.005913 554.407043,63.026539 
z"/>
<path fill="#157AA3" opacity="1.000000" stroke="none" 
	d="
M665.397949,67.976944 
	C665.317261,65.504028 667.594666,65.739586 669.141235,65.135307 
	C675.261169,62.744068 681.805115,61.518532 687.888672,58.125793 
	C692.990967,57.514153 697.880371,57.202122 703.204285,56.870808 
	C719.234741,56.901787 734.833435,57.141697 750.425415,56.915508 
	C757.339294,56.815212 763.925842,57.647228 770.327026,60.219936 
	C775.478088,62.290241 780.673218,64.251091 785.927734,66.615158 
	C774.613647,69.649406 763.262085,72.033630 751.364014,70.367188 
	C738.612793,68.581253 725.772034,67.435516 712.972046,65.995209 
	C707.229919,65.349075 701.507385,64.356407 695.748596,64.067909 
	C685.570984,63.558033 675.824097,66.857391 665.397949,67.976944 
z"/>
<path fill="#186E96" opacity="1.000000" stroke="none" 
	d="
M446.598938,57.069321 
	C436.865662,60.198929 426.525818,61.995281 416.054688,62.941032 
	C411.876312,63.318420 408.636536,60.291813 405.051361,58.753227 
	C394.727386,54.322659 384.634735,49.352989 374.235809,44.334740 
	C396.436951,46.296318 418.750488,49.119640 440.474213,55.408073 
	C442.381226,55.960106 444.311127,56.433235 446.598938,57.069321 
z"/>
<path fill="#157AA3" opacity="1.000000" stroke="none" 
	d="
M15.401638,78.992310 
	C15.460073,76.117638 18.138643,76.716011 19.781895,76.326622 
	C35.092560,72.698532 50.519867,69.549721 65.782494,65.737968 
	C72.234024,64.126740 78.334915,65.766083 84.548248,66.219887 
	C91.123306,66.700104 97.635422,68.042160 104.602493,69.024292 
	C103.049881,72.774231 98.849968,72.387772 95.702324,73.798248 
	C90.129051,76.295654 84.099121,77.754356 78.438004,80.080261 
	C71.029770,83.123978 63.328201,82.293762 55.821926,81.779510 
	C45.605839,81.079605 35.392540,80.391632 25.161045,80.046272 
	C22.004080,79.939697 18.879753,79.900108 15.401638,78.992310 
z"/>
</svg>