<?xml version="1.0" encoding="UTF-8" standalone="no" ?>
<!DOCTYPE svg PUBLIC "-//W3C//DTD SVG 1.1//EN" "http://www.w3.org/Graphics/SVG/1.1/DTD/svg11.dtd">
<svg xmlns="http://www.w3.org/2000/svg" xmlns:xlink="http://www.w3.org/1999/xlink" version="1.1" width="1080" height="1080" viewBox="0 0 1080 1080" xml:space="preserve">
<desc>Created with Fabric.js 5.2.4</desc>
<defs>
</defs>
<g transform="matrix(1 0 0 1 540 540)" id="0efff1da-16dd-4407-9d9a-968d39b35a82"  >
<rect style="stroke: none; stroke-width: 1; stroke-dasharray: none; stroke-linecap: butt; stroke-dashoffset: 0; stroke-linejoin: miter; stroke-miterlimit: 4; fill: rgb(255,255,255); fill-rule: nonzero; opacity: 1; visibility: hidden;" vector-effect="non-scaling-stroke"  x="-540" y="-540" rx="0" ry="0" width="1080" height="1080" />
</g>
<g transform="matrix(1 0 0 1 540 540)" id="23d4889e-fc1c-4cd9-b30d-ea5909d39f90"  >
</g>
<g transform="matrix(1 0 0 1 589.94 -482.2)"  >
<g style="opacity: 1;" vector-effect="non-scaling-stroke"   >
		<g transform="matrix(1 0 0 1 0 -0.5)"  >
<rect style="stroke: none; stroke-width: 1; stroke-dasharray: none; stroke-linecap: butt; stroke-dashoffset: 0; stroke-linejoin: miter; stroke-miterlimit: 4; fill: rgb(246,241,241); fill-rule: nonzero; opacity: 1;" vector-effect="non-scaling-stroke"  x="-960" y="-500" rx="0" ry="0" width="1920" height="1000" />
</g>
		<g transform="matrix(1 0 0 1 0 311.5)"  >
<path style="stroke: none; stroke-width: 1; stroke-dasharray: none; stroke-linecap: butt; stroke-dashoffset: 0; stroke-linejoin: miter; stroke-miterlimit: 4; fill: rgb(20,108,148); fill-rule: nonzero; opacity: 1;" vector-effect="non-scaling-stroke"  transform=" translate(-960, -812)" d="M 0 711 L 274 656 L 549 633 L 823 741 L 1097 735 L 1371 642 L 1646 721 L 1920 623 L 1920 1001 L 1646 1001 L 1371 1001 L 1097 1001 L 823 1001 L 549 1001 L 274 1001 L 0 1001 Z" stroke-linecap="round" />
</g>
		<g transform="matrix(1 0 0 1 0 337)"  >
<path style="stroke: none; stroke-width: 1; stroke-dasharray: none; stroke-linecap: butt; stroke-dashoffset: 0; stroke-linejoin: miter; stroke-miterlimit: 4; fill: rgb(21,122,163); fill-rule: nonzero; opacity: 1;" vector-effect="non-scaling-stroke"  transform=" translate(-960, -837.5)" d="M 0 676 L 274 695 L 549 752 L 823 689 L 1097 734 L 1371 751 L 1646 740 L 1920 674 L 1920 1001 L 1646 1001 L 1371 1001 L 1097 1001 L 823 1001 L 549 1001 L 274 1001 L 0 1001 Z" stroke-linecap="round" />
</g>
		<g transform="matrix(1 0 0 1 0 368)"  >
<path style="stroke: none; stroke-width: 1; stroke-dasharray: none; stroke-linecap: butt; stroke-dashoffset: 0; stroke-linejoin: miter; stroke-miterlimit: 4; fill: rgb(22,137,177); fill-rule: nonzero; opacity: 1;" vector-effect="non-scaling-stroke"  transform=" translate(-960, -868.5)" d="M 0 779 L 274 844 L 549 840 L 823 835 L 1097 822 L 1371 737 L 1646 736 L 1920 790 L 1920 1001 L 1646 1001 L 1371 1001 L 1097 1001 L 823 1001 L 549 1001 L 274 1001 L 0 1001 Z" stroke-linecap="round" />
</g>
		<g transform="matrix(1 0 0 1 0 406.5)"  >
<path style="stroke: none; stroke-width: 1; stroke-dasharray: none; stroke-linecap: butt; stroke-dashoffset: 0; stroke-linejoin: miter; stroke-miterlimit: 4; fill: rgb(23,152,192); fill-rule: nonzero; opacity: 1;" vector-effect="non-scaling-stroke"  transform=" translate(-960, -907)" d="M 0 813 L 274 898 L 549 825 L 823 842 L 1097 856 L 1371 873 L 1646 905 L 1920 852 L 1920 1001 L 1646 1001 L 1371 1001 L 1097 1001 L 823 1001 L 549 1001 L 274 1001 L 0 1001 Z" stroke-linecap="round" />
</g>
		<g transform="matrix(1 0 0 1 0 448)"  >
<path style="stroke: none; stroke-width: 1; stroke-dasharray: none; stroke-linecap: butt; stroke-dashoffset: 0; stroke-linejoin: miter; stroke-miterlimit: 4; fill: rgb(25,167,206); fill-rule: nonzero; opacity: 1;" vector-effect="non-scaling-stroke"  transform=" translate(-960, -948.5)" d="M 0 943 L 274 901 L 549 896 L 823 917 L 1097 907 L 1371 931 L 1646 919 L 1920 940 L 1920 1001 L 1646 1001 L 1371 1001 L 1097 1001 L 823 1001 L 549 1001 L 274 1001 L 0 1001 Z" stroke-linecap="round" />
</g>
</g>
</g>
</svg>